# xmcd CD database file
#
# Track frame offsets:
#	150
#	18322
#	34905
#	55987
#	75647
#	92825
#	113655
#	132805
#	154440
#	178495
#
# Disc length: 2660 seconds
#
# Revision: 0
# Processed by: cddbd v1.5.1PL0 Copyright (c) Steve Scherf et al.
# Submitted via: CDex 1.51
#
DISCID=820a620a
DTITLE=J'z Craze - Ferris Wheel
DYEAR=2003
DGENRE=Instrumental
TTITLE0=Last Letter
TTITLE1=NOBO
TTITLE2=Somebody Somewhere
TTITLE3=Who Saw The Wind
TTITLE4=Menuetto Bossa
TTITLE5=黄昏
TTITLE6=Ferris Wheel
TTITLE7=五木の子守唄
TTITLE8=Memory Of Aquamarine
TTITLE9=When You Wish Upon A Star
EXTD=YEAR: 2003
EXTT0=
EXTT1=
EXTT2=
EXTT3=
EXTT4=
EXTT5=
EXTT6=
EXTT7=
EXTT8=
EXTT9=
PLAYORDER=
